<svg width="405" height="391" viewBox="0 0 405 391" fill="none" xmlns="http://www.w3.org/2000/svg">
<path d="M405 362C405 561.927 242.927 724 43 724C-156.927 724 -319 561.927 -319 362C-319 162.073 -156.927 0 43 0C242.927 0 405 162.073 405 362Z" fill="#264ECA"/>
<path d="M329 362C329 519.953 200.953 648 43 648C-114.953 648 -243 519.953 -243 362C-243 204.047 -114.953 76 43 76C200.953 76 329 204.047 329 362Z" fill="#244BC5"/>
<path d="M262 362C262 482.95 163.95 581 43 581C-77.9504 581 -176 482.95 -176 362C-176 241.05 -77.9504 143 43 143C163.95 143 262 241.05 262 362Z" fill="#274FC7"/>
</svg>
